HIERARCHY
ROOT SimulationBone
{
	OFFSET 0.000000 0.000000 0.000000
	CHANNELS 6 Xposition Yposition Zposition Zrotation Yrotation Xrotation 
	JOINT Hips
	{
		OFFSET 0.000000 0.000000 0.000000
		CHANNELS 6 Xposition Yposition Zposition Zrotation Yrotation Xrotation 
		JOINT LeftUpLeg
		{
			OFFSET 0.103457 1.857824 10.548509
			CHANNELS 3 Zrotation Yrotation Xrotation
			JOINT LeftLeg
			{
				OFFSET 43.500000 -0.000023 0.000006
				CHANNELS 3 Zrotation Yrotation Xrotation
				JOINT LeftFoot
				{
					OFFSET 42.372192 0.000011 -0.000009
					CHANNELS 3 Zrotation Yrotation Xrotation
					JOINT LeftToe
					{
						OFFSET 17.300005 0.000002 -0.000010
						CHANNELS 3 Zrotation Yrotation Xrotation
						End Site
						{
							OFFSET 0.000000 0.000000 0.000000
						}
					}
				}
			}
		}
		JOINT RightUpLeg
		{
			OFFSET 0.103458 1.857836 -10.548506
			CHANNELS 3 Zrotation Yrotation Xrotation
			JOINT RightLeg
			{
				OFFSET 43.500038 -0.000023 0.000017
				CHANNELS 3 Zrotation Yrotation Xrotation
				JOINT RightFoot
				{
					OFFSET 42.372269 -0.000019 0.000007
					CHANNELS 3 Zrotation Yrotation Xrotation
					JOINT RightToe
					{
						OFFSET 17.299999 -0.000003 0.000008
						CHANNELS 3 Zrotation Yrotation Xrotation
						End Site
						{
							OFFSET 0.000000 0.000000 0.000000
						}
					}
				}
			}
		}
		JOINT Spine
		{
			OFFSET 6.901969 -2.603729 0.000003
			CHANNELS 3 Zrotation Yrotation Xrotation
			JOINT Spine1
			{
				OFFSET 12.588093 -0.000007 0.000001
				CHANNELS 3 Zrotation Yrotation Xrotation
				JOINT Spine2
				{
					OFFSET 12.343206 0.000014 -0.000007
					CHANNELS 3 Zrotation Yrotation Xrotation
					JOINT Neck
					{
						OFFSET 25.832899 -0.000010 0.000002
						CHANNELS 3 Zrotation Yrotation Xrotation
						JOINT Head
						{
							OFFSET 11.766599 0.000010 -0.000001
							CHANNELS 3 Zrotation Yrotation Xrotation
							End Site
							{
								OFFSET 0.000000 0.000000 0.000000
							}
						}
					}
					JOINT LeftShoulder
					{
						OFFSET 19.745895 -1.480371 6.000111
						CHANNELS 3 Zrotation Yrotation Xrotation
						JOINT LeftArm
						{
							OFFSET 11.284124 -0.000010 -0.000007
							CHANNELS 3 Zrotation Yrotation Xrotation
							JOINT LeftForeArm
							{
								OFFSET 33.000061 0.000006 0.000028
								CHANNELS 3 Zrotation Yrotation Xrotation
								JOINT LeftHand
								{
									OFFSET 25.200001 0.000019 0.000008
									CHANNELS 3 Zrotation Yrotation Xrotation
									End Site
									{
										OFFSET 0.000000 0.000000 0.000000
									}
								}
							}
						}
					}
					JOINT RightShoulder
					{
						OFFSET 19.746101 -1.480375 -6.000078
						CHANNELS 3 Zrotation Yrotation Xrotation
						JOINT RightArm
						{
							OFFSET 11.284128 -0.000010 -0.000011
							CHANNELS 3 Zrotation Yrotation Xrotation
							JOINT RightForeArm
							{
								OFFSET 33.000095 0.000022 0.000002
								CHANNELS 3 Zrotation Yrotation Xrotation
								JOINT RightHand
								{
									OFFSET 25.199768 0.000129 0.000422
									CHANNELS 3 Zrotation Yrotation Xrotation
									End Site
									{
										OFFSET 0.000000 0.000000 0.000000
									}
								}
							}
						}
					}
				}
			}
		}
	}
}
MOTION
Frames: 5
Frame Time: 0.016667
-151.914634 0.000000 433.999429 0.000000 -7.980267 0.000000 -4.763815 86.002502 1.000334 87.929233 -1.457617 178.049304 138.988147 -15.315902 168.546775 -55.245943 3.995291 -5.188647 80.318024 3.273275 -0.874049 21.454553 0.003090 -0.000002 150.943191 -4.055999 -160.414998 -47.590899 -6.537393 17.239022 94.950796 -11.206592 2.069116 21.454558 -0.003113 -0.000021 9.814201 -2.575078 1.926727 9.541383 -5.300108 3.638105 9.222525 -5.277919 3.670079 8.586132 -11.899600 -28.523690 -25.078242 16.406668 -38.735463 -145.509909 -80.836327 -36.524624 -3.540877 59.330013 15.531132 -55.128471 -23.036565 2.469651 17.799985 -16.437747 -27.343541 129.786376 77.955813 -49.522037 -38.913803 -54.476617 -3.759865 -64.797109 7.243142 -1.784775 -2.016625 1.366805 -8.267430 
-154.320710 0.000000 433.903640 0.000000 -7.141726 0.000000 -4.562823 86.179051 1.311743 88.176243 -1.550700 178.468512 139.590570 -14.707164 169.365947 -59.737103 3.673992 -4.762529 81.777379 2.798787 -1.743265 21.454555 0.003091 -0.000001 150.108244 -4.715884 -161.979111 -46.514121 -6.094251 18.441186 92.888709 -12.093787 1.700032 21.454560 -0.003104 -0.000016 9.764111 -2.630711 1.768574 9.447443 -5.396873 3.319815 9.128420 -5.376601 3.352394 8.000153 -11.661940 -28.551703 -24.073834 16.225216 -38.460643 -150.338938 -81.280714 -31.615392 -10.900790 58.025419 13.741253 -54.535922 -22.570657 2.415773 17.241070 -16.582344 -26.742332 130.364740 78.163259 -48.921170 -37.840914 -54.776407 -4.540130 -64.024836 7.325671 -1.759834 -2.255212 2.698445 -8.016719 
-156.748522 0.000000 433.807684 0.000000 -6.500363 0.000000 -4.373210 86.251343 1.599574 88.337870 -1.503631 179.016049 140.226283 -14.151707 170.747544 -64.164859 2.872312 -4.124651 83.105964 2.425293 -1.505157 21.454548 0.003093 0.000001 149.215385 -5.370805 -163.466958 -45.368431 -5.586506 19.676281 90.998445 -13.030285 1.244876 21.454560 -0.003108 -0.000016 9.686655 -2.657018 1.607772 9.299574 -5.434494 2.999889 8.980418 -5.416150 3.032712 7.543479 -11.395041 -28.580285 -23.452682 16.148671 -38.305783 -155.256986 -81.890525 -26.617354 -17.623412 56.747771 12.533188 -54.102228 -22.279889 2.380332 16.589281 -16.666816 -25.381841 131.019799 78.383457 -48.242049 -36.625598 -55.053628 -5.551145 -63.419699 7.553300 -1.753076 -2.472019 3.412086 -8.583750 
-159.196034 0.000000 433.711243 0.000000 -6.046341 0.000000 -4.187673 86.217820 1.868641 88.483544 -1.300858 179.618746 141.095033 -13.732294 172.341570 -68.335953 1.891748 -3.119182 84.348423 1.841275 -1.108348 21.454540 0.003095 0.000003 148.330537 -6.076299 -164.705034 -44.125926 -5.135376 20.842337 89.233572 -13.950975 0.666907 21.454558 -0.003116 -0.000018 9.600652 -2.650924 1.448343 9.135076 -5.407761 2.685635 8.815832 -5.391313 2.718309 7.153605 -11.087761 -28.588050 -23.157912 16.125551 -38.213150 -160.476929 -82.534332 -21.321650 -23.772406 55.490161 11.646253 -53.947342 -22.109015 2.362911 15.692171 -16.706912 -23.145857 131.745773 78.576048 -47.493755 -35.245243 -55.267191 -6.698605 -63.029615 7.802080 -1.755396 -2.719383 3.696922 -9.733307 
-161.661211 0.000000 433.613998 0.000000 -5.770102 0.000000 -3.999897 86.076927 2.124189 88.684248 -0.926186 -179.796115 142.385415 -13.533998 173.800174 -72.054021 1.041947 -1.641957 85.566095 0.778398 -1.513671 21.454541 0.003095 0.000003 147.517496 -6.879500 -165.519130 -42.764688 -4.858494 21.832973 87.548237 -14.793015 -0.073391 21.454557 -0.003121 -0.000019 9.524907 -2.609240 1.294281 8.991214 -5.311013 2.384276 8.671939 -5.296386 2.416374 6.768419 -10.728740 -28.554329 -23.133793 16.102207 -38.127163 -165.900635 -83.081729 -15.830402 -29.363327 54.218999 10.858755 -54.191898 -22.002654 2.364493 14.396879 -16.695139 -19.915520 132.525432 78.700760 -46.696818 -33.684808 -55.377495 -7.880794 -62.902865 7.947813 -1.760399 -3.037550 3.742128 -11.231676 
